# xmcd
#
# Track frame offsets: 
#        150
#        10179
#        32131
#        52974
#        64691
#        74876
#        101809
#        106665
#        116445
#        157448
#        162732
#        171370
#        180884
#
# Disc length: 2612 seconds
#
# Revision: 0
# Processed by: cddbd v1.4PL0 Copyright (c) Steve Scherf et al.
# Submitted via: ExactAudioCopy v0.90b4
#
DISCID=b40a320d
DTITLE=James Brown - Cold Sweat (Live)
DYEAR=1979
DGENRE=Soul
TTITLE0=Give It Up Or Turnit A Loose
TTITLE1=It's Too Funky In Here
TTITLE2=Try Me
TTITLE3=Get On The Good Foot
TTITLE4=Get Up Offa That Thing
TTITLE5=Georgia On My Mind
TTITLE6=Hot Pants
TTITLE7=I Got The Feelin'
TTITLE8=It's A Man's Man's Man's World
TTITLE9=Cold Sweat
TTITLE10=I Can't Stand Myself (When You Touch Me)
TTITLE11=Papa's Got A Brand New Bag
TTITLE12=I Feel Good (I Got You)
EXTD=
EXTT0=
EXTT1=
EXTT2=
EXTT3=
EXTT4=
EXTT5=
EXTT6=
EXTT7=
EXTT8=
EXTT9=
EXTT10=
EXTT11=
EXTT12=
PLAYORDER=
